<svg width="242" height="82" viewBox="0 0 242 82" fill="none" xmlns="http://www.w3.org/2000/svg">
<g clip-path="url(#clip0_0_641)">
<path d="M242 73.7803C242 78.3215 238.885 82 235.031 82H6.9778C3.12629 82 0 78.3215 0 73.7803V8.23047C0 3.69137 3.12629 0 6.9778 0H235.029C238.885 0 241.998 3.69137 241.998 8.23047L242 73.7803Z" fill="#24095F"/>
<path d="M55.0682 39.8673C55.018 34.4349 59.6454 31.792 59.857 31.669C57.2363 27.9558 53.1742 27.4485 51.7468 27.408C48.3352 27.0591 45.0259 29.3919 43.288 29.3919C41.5154 29.3919 38.8392 27.4417 35.9548 27.499C32.2431 27.5547 28.7708 29.643 26.8664 32.8859C22.9362 39.4982 25.8674 49.2152 29.6328 54.5599C31.5164 57.1775 33.7174 60.1002 36.5983 59.9974C39.4167 59.8844 40.4695 58.2512 43.8708 58.2512C47.2408 58.2512 48.2294 59.9974 51.1675 59.9316C54.1924 59.8844 56.0968 57.3022 57.9144 54.661C60.0912 51.6608 60.9653 48.7061 61 48.5544C60.9289 48.5308 55.1255 46.3784 55.0682 39.8673Z" fill="white"/>
<path d="M49.5181 23.8921C51.034 22.0498 52.0711 19.5434 51.7832 17C49.5892 17.0944 46.8453 18.4748 45.2652 20.2766C43.8673 21.8644 42.6185 24.4668 42.9411 26.9142C45.4057 27.0928 47.9363 25.7057 49.5181 23.8921Z" fill="white"/>
<path d="M88 23.236C88 25.1843 87.4088 26.651 86.2281 27.636C85.1345 28.5448 83.5804 29 81.5674 29C80.5692 29 79.7151 28.957 79 28.8709V18.2251C79.9328 18.0761 80.9377 18 82.0229 18C83.9405 18 85.3857 18.4122 86.3604 19.2366C87.4524 20.1685 88 21.5011 88 23.236ZM86.1494 23.284C86.1494 22.0209 85.8111 21.0525 85.1345 20.3771C84.4579 19.7034 83.4699 19.3657 82.1686 19.3657C81.6159 19.3657 81.1453 19.4021 80.7551 19.4783V27.5714C80.9712 27.6045 81.3664 27.6194 81.9408 27.6194C83.284 27.6194 84.3206 27.2503 85.0508 26.512C85.781 25.7737 86.1494 24.6977 86.1494 23.284Z" fill="white"/>
<path d="M99 25.9276C99 27.1072 98.6413 28.0736 97.924 28.8318C97.172 29.6111 96.1757 30 94.9316 30C93.7325 30 92.7778 29.6274 92.0656 28.879C91.3552 28.1322 91 27.1902 91 26.0545C91 24.8668 91.3656 23.8922 92.1003 23.1357C92.835 22.3791 93.8226 22 95.0667 22C96.2658 22 97.2292 22.3726 97.9586 23.1194C98.6517 23.845 99 24.7822 99 25.9276ZM97.1165 25.9829C97.1165 25.2752 96.9536 24.6683 96.6296 24.1623C96.2484 23.5505 95.7061 23.2447 95.0009 23.2447C94.2714 23.2447 93.7169 23.5505 93.3357 24.1623C93.01 24.6683 92.8488 25.2849 92.8488 26.0138C92.8488 26.7216 93.0117 27.3285 93.3357 27.8345C93.729 28.4462 94.2766 28.7521 94.9835 28.7521C95.6766 28.7521 96.2207 28.4413 96.6123 27.8182C96.9484 27.3024 97.1165 26.6907 97.1165 25.9829Z" fill="white"/>
<path d="M112 22L109.408 30H107.722L106.648 26.5261C106.376 25.6589 106.155 24.7968 105.982 23.9415H105.949C105.789 24.8205 105.568 25.681 105.283 26.5261L104.143 30H102.437L100 22H101.892L102.829 25.8031C103.055 26.7026 103.242 27.5596 103.391 28.3708H103.424C103.561 27.7022 103.788 26.8502 104.108 25.8201L105.283 22.0017H106.784L107.91 25.7387C108.182 26.65 108.404 27.5274 108.574 28.3725H108.625C108.75 27.5494 108.938 26.672 109.187 25.7387L110.192 22.0017H112V22Z" fill="white"/>
<path d="M122 30H120.225V25.5122C120.225 24.1292 119.689 23.4378 118.615 23.4378C118.088 23.4378 117.663 23.6273 117.333 24.0079C117.006 24.3885 116.84 24.8373 116.84 25.3509V29.9983H115.064V24.4035C115.064 23.7154 115.042 22.969 115 22.1612H116.56L116.643 23.3862H116.692C116.899 23.0056 117.207 22.6915 117.612 22.4405C118.093 22.1479 118.632 22 119.222 22C119.967 22 120.587 22.236 121.08 22.7097C121.693 23.2898 122 24.1558 122 25.306V30Z" fill="white"/>
<path d="M127.001 30H125V18H127.001V30Z" fill="white"/>
<path d="M137 25.9276C137 27.1072 136.641 28.0736 135.924 28.8318C135.172 29.6111 134.174 30 132.932 30C131.731 30 130.776 29.6274 130.066 28.879C129.355 28.1322 129 27.1902 129 26.0545C129 24.8668 129.366 23.8922 130.1 23.1357C130.835 22.3791 131.823 22 133.065 22C134.266 22 135.227 22.3726 135.959 23.1194C136.652 23.845 137 24.7822 137 25.9276ZM135.115 25.9829C135.115 25.2752 134.952 24.6683 134.628 24.1623C134.248 23.5505 133.704 23.2447 133.001 23.2447C132.27 23.2447 131.715 23.5505 131.336 24.1623C131.01 24.6683 130.849 25.2849 130.849 26.0138C130.849 26.7216 131.012 27.3285 131.336 27.8345C131.729 28.4462 132.277 28.7521 132.984 28.7521C133.677 28.7521 134.219 28.4413 134.611 27.8182C134.948 27.3024 135.115 26.6907 135.115 25.9829Z" fill="white"/>
<path d="M147 29.8259H145.298L145.157 28.9424H145.104C144.522 29.6469 143.692 30 142.614 30C141.809 30 141.158 29.7673 140.667 29.3053C140.222 28.8855 140 28.3632 140 27.7433C140 26.8062 140.434 26.0919 141.308 25.5973C142.18 25.1027 143.406 24.8603 144.985 24.8717V24.7285C144.985 23.7181 144.395 23.2137 143.214 23.2137C142.373 23.2137 141.632 23.4041 140.991 23.7816L140.606 22.6622C141.398 22.2213 142.377 22 143.531 22C145.759 22 146.877 23.0576 146.877 25.1727V27.9972C146.877 28.7635 146.919 29.3736 147 29.8259ZM145.032 27.1902V26.0073C142.941 25.9748 141.896 26.4905 141.896 27.553C141.896 27.9532 142.015 28.2526 142.259 28.4527C142.503 28.6528 142.814 28.7521 143.185 28.7521C143.601 28.7521 143.99 28.6333 144.345 28.3974C144.701 28.1599 144.92 27.8589 145.001 27.4895C145.021 27.4065 145.032 27.3057 145.032 27.1902Z" fill="white"/>
<path d="M157 29.8162H155.347L155.26 28.5155H155.208C154.68 29.5052 153.78 30 152.516 30C151.507 30 150.666 29.6168 149.999 28.8505C149.332 28.0842 149 27.0893 149 25.8677C149 24.5567 149.361 23.4948 150.086 22.6838C150.788 21.9278 151.649 21.5498 152.673 21.5498C153.798 21.5498 154.586 21.9158 155.034 22.6495H155.069V18H156.934V27.634C156.934 28.4227 156.956 29.1495 157 29.8162ZM155.069 26.4003V25.0498C155.069 24.8162 155.052 24.6271 155.018 24.4828C154.913 24.0498 154.687 23.6856 154.344 23.3918C153.997 23.0979 153.58 22.9502 153.098 22.9502C152.403 22.9502 151.859 23.2165 151.459 23.7509C151.062 24.2852 150.861 24.9674 150.861 25.8007C150.861 26.6014 151.052 27.2509 151.434 27.7509C151.837 28.2835 152.381 28.5498 153.062 28.5498C153.674 28.5498 154.163 28.3282 154.534 27.8832C154.893 27.4725 155.069 26.9777 155.069 26.4003Z" fill="white"/>
<path d="M172 25.9276C172 27.1072 171.641 28.0736 170.924 28.8318C170.172 29.6111 169.177 30 167.932 30C166.734 30 165.78 29.6274 165.066 28.879C164.355 28.1322 164 27.1902 164 26.0545C164 24.8668 164.366 23.8922 165.1 23.1357C165.835 22.3791 166.823 22 168.068 22C169.266 22 170.231 22.3726 170.959 23.1194C171.652 23.845 172 24.7822 172 25.9276ZM170.118 25.9829C170.118 25.2752 169.955 24.6683 169.631 24.1623C169.248 23.5505 168.708 23.2447 168.001 23.2447C167.273 23.2447 166.719 23.5505 166.336 24.1623C166.01 24.6683 165.849 25.2849 165.849 26.0138C165.849 26.7216 166.012 27.3285 166.336 27.8345C166.729 28.4462 167.277 28.7521 167.984 28.7521C168.677 28.7521 169.222 28.4413 169.614 27.8182C169.948 27.3024 170.118 26.6907 170.118 25.9829Z" fill="white"/>
<path d="M182 30H180.226V25.5122C180.226 24.1292 179.69 23.4378 178.614 23.4378C178.087 23.4378 177.662 23.6273 177.333 24.0079C177.005 24.3885 176.84 24.8373 176.84 25.3509V29.9983H175.063V24.4035C175.063 23.7154 175.042 22.969 175 22.1612H176.559L176.642 23.3862H176.691C176.9 23.0056 177.208 22.6915 177.611 22.4405C178.094 22.1479 178.631 22 179.223 22C179.967 22 180.587 22.236 181.08 22.7097C181.695 23.2898 182 24.1558 182 25.306V30Z" fill="white"/>
<path d="M194 23.2732H191.99V27.0994C191.99 28.0718 192.347 28.5581 193.054 28.5581C193.382 28.5581 193.653 28.5313 193.868 28.4762L193.915 29.8045C193.554 29.9348 193.08 30 192.497 30C191.776 30 191.215 29.7895 190.809 29.3684C190.402 28.9474 190.2 28.2389 190.2 27.2448V23.2732H189V21.9616H190.2V20.518L191.989 20V21.9599H193.998V23.2732H194Z" fill="white"/>
<path d="M204 30H202.206V25.3235C202.206 23.8491 201.666 23.1109 200.584 23.1109C199.753 23.1109 199.185 23.5385 198.874 24.3935C198.821 24.5732 198.79 24.7931 198.79 25.0513V29.9983H197V18H198.79V22.9574H198.824C199.389 22.0553 200.197 21.6051 201.245 21.6051C201.988 21.6051 202.601 21.8528 203.089 22.3502C203.696 22.9696 204 23.8909 204 25.1089V30Z" fill="white"/>
<path d="M214 25.6503C214 25.9568 213.977 26.2144 213.935 26.4247H208.685C208.709 27.1844 208.959 27.7632 209.445 28.1643C209.89 28.5229 210.462 28.7023 211.164 28.7023C211.941 28.7023 212.649 28.5816 213.287 28.3387L213.561 29.5256C212.814 29.8419 211.936 30 210.918 30C209.699 30 208.739 29.6495 208.044 28.9484C207.346 28.2474 207 27.3067 207 26.1264C207 24.9672 207.322 24.002 207.972 23.2325C208.65 22.4108 209.567 22 210.725 22C211.857 22 212.717 22.4108 213.299 23.2325C213.768 23.8847 214 24.6917 214 25.6503ZM212.33 25.2085C212.343 24.7014 212.228 24.2645 211.991 23.8961C211.687 23.4216 211.224 23.1836 210.598 23.1836C210.026 23.1836 209.56 23.4151 209.205 23.8798C208.914 24.2498 208.742 24.6917 208.685 25.2085H212.33Z" fill="white"/>
<path d="M97 61H92.9573L90.7428 54.2441H83.0454L80.9359 61H77L84.6262 38H89.3364L97 61ZM90.0752 51.4098L88.0725 45.404C87.8607 44.7904 87.4637 43.3456 86.8781 41.0712H86.8069C86.5737 42.0494 86.198 43.4942 85.6818 45.404L83.7147 51.4098H90.0752Z" fill="white"/>
<path d="M116 52.5418C116 55.4001 115.236 57.6595 113.709 59.3181C112.342 60.7946 110.643 61.5319 108.616 61.5319C106.427 61.5319 104.855 60.7368 103.897 59.1465H103.828V68H100.137V49.8778C100.137 48.0809 100.09 46.2366 100 44.345H103.246L103.452 47.009H103.522C104.753 45.0018 106.621 44 109.128 44C111.088 44 112.724 44.7829 114.033 46.3504C115.346 47.9197 116 49.9829 116 52.5418ZM112.239 52.6784C112.239 51.0425 111.876 49.6939 111.145 48.6326C110.347 47.5257 109.275 46.9722 107.932 46.9722C107.021 46.9722 106.193 47.2804 105.454 47.8882C104.713 48.5012 104.228 49.3016 104.001 50.2929C103.887 50.7553 103.83 51.1336 103.83 51.4314V54.2337C103.83 55.4562 104.2 56.4878 104.941 57.3302C105.683 58.1727 106.645 58.593 107.829 58.593C109.22 58.593 110.302 58.0501 111.076 56.9677C111.852 55.8835 112.239 54.4544 112.239 52.6784Z" fill="white"/>
<path d="M135 52.5418C135 55.4001 134.236 57.6595 132.707 59.3181C131.341 60.7946 129.642 61.5319 127.615 61.5319C125.426 61.5319 123.854 60.7368 122.898 59.1465H122.829V68H119.137V49.8778C119.137 48.0809 119.09 46.2366 119 44.345H122.247L122.453 47.009H122.522C123.752 45.0018 125.62 44 128.129 44C130.087 44 131.724 44.7829 133.036 46.3504C134.344 47.9197 135 49.9829 135 52.5418ZM131.239 52.6784C131.239 51.0425 130.874 49.6939 130.143 48.6326C129.345 47.5257 128.276 46.9722 126.931 46.9722C126.018 46.9722 125.192 47.2804 124.451 47.8882C123.71 48.5012 123.227 49.3016 123 50.2929C122.887 50.7553 122.829 51.1336 122.829 51.4314V54.2337C122.829 55.4562 123.199 56.4878 123.937 57.3302C124.678 58.1709 125.641 58.593 126.829 58.593C128.219 58.593 129.301 58.0501 130.075 56.9677C130.851 55.8835 131.239 54.4544 131.239 52.6784Z" fill="white"/>
<path d="M157 55.1171C157 57.1001 156.334 58.7136 154.996 59.9591C153.525 61.3203 151.479 62 148.849 62C146.42 62 144.474 61.5165 143 60.5477L143.838 57.4347C145.425 58.4263 147.166 58.9238 149.064 58.9238C150.426 58.9238 151.485 58.605 152.247 57.9708C153.005 57.3366 153.383 56.4853 153.383 55.4237C153.383 54.4777 153.071 53.6806 152.445 53.0342C151.823 52.3877 150.783 51.7869 149.332 51.2315C145.381 49.7092 143.407 47.4791 143.407 44.5466C143.407 42.6301 144.099 41.0587 145.484 39.8359C146.865 38.6114 148.706 38 151.009 38C153.062 38 154.768 38.3696 156.13 39.1072L155.226 42.1518C153.954 41.4371 152.516 41.0797 150.907 41.0797C149.635 41.0797 148.642 41.4038 147.93 42.0485C147.328 42.6248 147.026 43.3273 147.026 44.1594C147.026 45.0809 147.37 45.8429 148.062 46.442C148.664 46.9956 149.758 47.5947 151.345 48.2412C153.286 49.0488 154.712 49.993 155.63 51.0756C156.544 52.1547 157 53.5054 157 55.1171Z" fill="white"/>
<path d="M169 47.8793H164.979V55.9101C164.979 57.9527 165.687 58.9732 167.107 58.9732C167.759 58.9732 168.3 58.9163 168.728 58.8025L168.829 61.5932C168.11 61.8638 167.164 62 165.992 62C164.551 62 163.425 61.557 162.612 60.6727C161.803 59.7868 161.396 58.3009 161.396 56.2135V47.8759H159V45.118H161.396V42.0894L164.979 41V45.118H169V47.8793Z" fill="white"/>
<path d="M189 52.348C189 54.8532 188.237 56.9101 186.714 58.5185C185.117 60.1745 182.997 61 180.354 61C177.808 61 175.78 60.2068 174.268 58.6204C172.756 57.0341 172 55.0316 172 52.618C172 50.0924 172.778 48.0237 174.339 46.4152C175.896 44.8051 177.998 44 180.64 44C183.187 44 185.236 44.7932 186.783 46.3813C188.262 47.9218 189 49.9107 189 52.348ZM184.999 52.4652C184.999 50.962 184.657 49.6729 183.965 48.5978C183.156 47.2967 182 46.6479 180.503 46.6479C178.953 46.6479 177.775 47.2984 176.967 48.5978C176.274 49.6746 175.932 50.9841 175.932 52.5331C175.932 54.0363 176.274 55.3254 176.967 56.3988C177.801 57.6999 178.965 58.3487 180.468 58.3487C181.941 58.3487 183.096 57.6863 183.93 56.3649C184.641 55.2694 184.999 53.9666 184.999 52.4652Z" fill="white"/>
<path d="M200 47.5969C199.63 47.5292 199.236 47.4944 198.822 47.4944C197.507 47.4944 196.49 47.9857 195.775 48.97C195.153 49.8379 194.841 50.9351 194.841 52.2596V61H191.105L191.14 49.588C191.14 47.668 191.093 45.9199 191 44.3437H194.255L194.392 47.5309H194.496C194.89 46.4355 195.512 45.5537 196.364 44.8923C197.197 44.2968 198.096 44 199.066 44C199.411 44 199.723 44.0243 200 44.0677V47.5969Z" fill="white"/>
<path d="M217 51.7588C217 52.409 216.956 52.957 216.863 53.4045H205.613C205.657 55.0179 206.2 56.2518 207.245 57.1027C208.193 57.8635 209.419 58.2447 210.925 58.2447C212.59 58.2447 214.11 57.9877 215.477 57.472L216.064 59.9908C214.467 60.6647 212.582 61 210.406 61C207.789 61 205.734 60.2546 204.239 58.7654C202.748 57.2763 202 55.2766 202 52.768C202 50.3054 202.695 48.2547 204.086 46.6192C205.542 44.8731 207.511 44 209.987 44C212.42 44 214.261 44.8731 215.512 46.6192C216.502 48.0062 217 49.7217 217 51.7588ZM213.424 50.8177C213.449 49.7421 213.204 48.8129 212.696 48.0283C212.047 47.0191 211.05 46.5154 209.708 46.5154C208.482 46.5154 207.484 47.0072 206.723 47.9943C206.098 48.7789 205.727 49.72 205.613 50.816H213.424V50.8177Z" fill="white"/>
</g>
<defs>
<clipPath id="clip0_0_641">
<rect width="242" height="82" rx="8" fill="white"/>
</clipPath>
</defs>
</svg>
