<svg width="242" height="82" viewBox="0 0 242 82" fill="none" xmlns="http://www.w3.org/2000/svg">
<g clip-path="url(#clip0_0_619)">
<path d="M233.037 82H8.96296C4.03557 82 0 77.3849 0 71.75V10.25C0 4.61507 4.03557 0 8.96296 0H233.037C237.964 0 242 4.61507 242 10.25V71.75C242 77.3849 237.964 82 233.037 82Z" fill="url(#paint0_linear_0_619)"/>
<path d="M86 25.3888C86 26.7205 85.5878 27.7871 84.7758 28.5825C83.8421 29.5255 82.6261 30 81.136 30C79.7119 30 78.4959 29.5175 77.4983 28.5666C76.4988 27.6017 76 26.4175 76 25C76 23.5825 76.4988 22.3983 77.4983 21.4414C78.4959 20.4825 79.7119 20 81.136 20C81.845 20 82.521 20.1415 83.1661 20.4047C83.8091 20.6699 84.3326 21.0287 84.7119 21.4713L83.8504 22.3126C83.1888 21.557 82.2881 21.1842 81.136 21.1842C80.0973 21.1842 79.1966 21.5351 78.432 22.2428C77.6756 22.9526 77.2964 23.8716 77.2964 25C77.2964 26.1284 77.6756 27.0554 78.432 27.7652C79.1966 28.4649 80.0973 28.8238 81.136 28.8238C82.2387 28.8238 83.1661 28.4649 83.8978 27.7572C84.3801 27.2887 84.6542 26.6427 84.7263 25.8174H81.136V24.6651H85.9258C85.9835 24.9143 86 25.1555 86 25.3888Z" fill="white" stroke="white" stroke-width="0.16" stroke-miterlimit="10"/>
<path d="M95 21.2281H90.3238V24.3974H94.5394V25.6026H90.3238V28.7719H95V30H89V20H95V21.2281Z" fill="white" stroke="white" stroke-width="0.16" stroke-miterlimit="10"/>
<path d="M100.749 30H99.249V21.2281H96V20H104V21.2281H100.749V30Z" fill="white" stroke="white" stroke-width="0.16" stroke-miterlimit="10"/>
<path d="M109 30V20H110V30H109Z" fill="white" stroke="white" stroke-width="0.16" stroke-miterlimit="10"/>
<path d="M115.743 30H114.257V21.2281H111V20H119V21.2281H115.743V30Z" fill="white" stroke="white" stroke-width="0.16" stroke-miterlimit="10"/>
<path d="M132.424 28.5506C131.369 29.5175 130.063 30 128.504 30C126.937 30 125.631 29.5175 124.576 28.5506C123.524 27.5857 123 26.4015 123 25C123 23.5985 123.524 22.4143 124.576 21.4494C125.631 20.4825 126.937 20 128.504 20C130.054 20 131.36 20.4825 132.415 21.4573C133.476 22.4302 134 23.6065 134 25C134 26.4015 133.476 27.5857 132.424 28.5506ZM125.595 27.7492C126.389 28.4649 127.354 28.8238 128.504 28.8238C129.646 28.8238 130.62 28.4649 131.405 27.7492C132.196 27.0335 132.598 26.1144 132.598 25C132.598 23.8856 132.196 22.9665 131.405 22.2508C130.62 21.5351 129.646 21.1762 128.504 21.1762C127.354 21.1762 126.389 21.5351 125.595 22.2508C124.804 22.9665 124.402 23.8856 124.402 25C124.402 26.1144 124.804 27.0335 125.595 27.7492Z" fill="white" stroke="white" stroke-width="0.16" stroke-miterlimit="10"/>
<path d="M136 30V20H137.622L142.666 27.7773H142.724L142.666 25.8549V20H144V30H142.607L137.326 21.839H137.267L137.326 23.7698V30H136Z" fill="white" stroke="white" stroke-width="0.16" stroke-miterlimit="10"/>
<path d="M120.702 47.7372C116.74 47.7372 113.504 50.676 113.504 54.7306C113.504 58.7523 116.74 61.7218 120.702 61.7218C124.672 61.7218 127.908 58.7523 127.908 54.7306C127.908 50.676 124.672 47.7372 120.702 47.7372ZM120.702 58.9681C118.528 58.9681 116.658 57.2192 116.658 54.7306C116.658 52.209 118.528 50.491 120.702 50.491C122.875 50.491 124.754 52.209 124.754 54.7306C124.754 57.2192 122.875 58.9681 120.702 58.9681ZM104.996 47.7372C101.026 47.7372 97.7981 50.676 97.7981 54.7306C97.7981 58.7523 101.026 61.7218 104.996 61.7218C108.964 61.7218 112.194 58.7523 112.194 54.7306C112.194 50.676 108.964 47.7372 104.996 47.7372ZM104.996 58.9681C102.82 58.9681 100.944 57.2192 100.944 54.7306C100.944 52.209 102.82 50.491 104.996 50.491C107.17 50.491 109.04 52.209 109.04 54.7306C109.04 57.2192 107.17 58.9681 104.996 58.9681ZM86.3073 49.8807V52.8523H93.5876C93.3747 54.5127 92.8054 55.7334 91.9325 56.5842C90.8699 57.6117 89.2148 58.7523 86.3073 58.7523C81.827 58.7523 78.3186 55.2279 78.3186 50.8609C78.3186 46.4939 81.827 42.9695 86.3073 42.9695C88.7299 42.9695 90.4925 43.8923 91.7934 45.0883L93.9419 42.9942C92.1223 41.3008 89.7019 40 86.3073 40C80.1635 40 75 44.8725 75 50.8609C75 56.8493 80.1635 61.7218 86.3073 61.7218C89.6281 61.7218 92.1223 60.6614 94.0831 58.6721C96.0924 56.7137 96.7186 53.9599 96.7186 51.7364C96.7186 51.0459 96.6596 50.4109 96.5542 49.8807H86.3073ZM162.728 52.1844C162.136 50.6205 160.308 47.7372 156.584 47.7372C152.895 47.7372 149.823 50.5712 149.823 54.7306C149.823 58.6475 152.863 61.7218 156.939 61.7218C160.234 61.7218 162.136 59.7634 162.918 58.6228L160.472 57.0343C159.656 58.1974 158.545 58.9681 156.939 58.9681C155.343 58.9681 154.198 58.255 153.464 56.8493L163.059 52.9797L162.728 52.1844ZM152.945 54.5127C152.863 51.8165 155.094 50.4355 156.692 50.4355C157.944 50.4355 159.007 51.0459 159.361 51.9193L152.945 54.5127ZM145.146 61.2964H148.301V40.746H145.146V61.2964ZM139.981 49.295H139.875C139.167 48.4771 137.816 47.7372 136.103 47.7372C132.511 47.7372 129.226 50.8116 129.226 54.7532C129.226 58.6721 132.511 61.7218 136.103 61.7218C137.816 61.7218 139.167 60.9759 139.875 60.1333H139.981V61.1361C139.981 63.8098 138.515 65.2462 136.152 65.2462C134.225 65.2462 133.029 63.8899 132.536 62.7494L129.793 63.8652C130.584 65.7189 132.677 68 136.152 68C139.85 68 142.971 65.8792 142.971 60.719V48.1626H139.981V49.295ZM136.373 58.9681C134.2 58.9681 132.38 57.1946 132.38 54.7532C132.38 52.2892 134.2 50.491 136.373 50.491C138.515 50.491 140.204 52.2892 140.204 54.7532C140.204 57.1946 138.515 58.9681 136.373 58.9681ZM177.496 40.746H169.952V61.2964H173.097V53.5099H177.496C180.989 53.5099 184.415 51.0459 184.415 47.1269C184.415 43.21 180.981 40.746 177.496 40.746ZM177.578 50.6513H173.097V43.6046H177.578C179.927 43.6046 181.267 45.5055 181.267 47.1269C181.267 48.7175 179.927 50.6513 177.578 50.6513ZM197.024 47.6982C194.751 47.6982 192.387 48.6764 191.415 50.8445L194.207 51.985C194.808 50.8445 195.912 50.4746 197.08 50.4746C198.712 50.4746 200.367 51.4302 200.393 53.1174V53.3331C199.823 53.0126 198.605 52.5378 197.106 52.5378C194.099 52.5378 191.036 54.151 191.036 57.1617C191.036 59.9155 193.498 61.689 196.267 61.689C198.383 61.689 199.552 60.758 200.285 59.675H200.393V61.2636H203.431V53.3804C203.431 49.7368 200.639 47.6982 197.024 47.6982ZM196.644 58.9599C195.615 58.9599 194.181 58.4625 194.181 57.2192C194.181 55.6286 195.969 55.0183 197.517 55.0183C198.902 55.0183 199.552 55.3163 200.393 55.7088C200.146 57.6117 198.466 58.9599 196.644 58.9599ZM214.5 48.1483L210.884 57.0569H210.777L207.038 48.1483H203.646L209.263 60.5977L206.058 67.5253H209.345L218 48.1483H214.5ZM186.144 61.2964H189.298V40.746H186.144V61.2964Z" fill="white"/>
<path fill-rule="evenodd" clip-rule="evenodd" d="M25.7712 20.6425C25.2823 21.1515 25 21.9292 25 22.9471V59.0505C25 60.0684 25.2823 60.8461 25.788 61.3347L25.9187 61.4446L46.854 41.2166V40.7647L25.9018 20.5326L25.7712 20.6425Z" fill="url(#paint1_linear_0_619)"/>
<path fill-rule="evenodd" clip-rule="evenodd" d="M53.8157 47.9812L46.8329 41.2344V40.7621L53.8157 34.0154L53.9674 34.105L62.2269 38.6408C64.591 39.9274 64.591 42.0528 62.2269 43.3558L53.9674 47.8916L53.8157 47.9812Z" fill="url(#paint2_linear_0_619)"/>
<path fill-rule="evenodd" clip-rule="evenodd" d="M53.9692 47.8909L46.8349 40.9976L25.7689 61.3518C26.54 62.1498 27.8337 62.2394 29.2792 61.4617L53.9692 47.8909Z" fill="url(#paint3_linear_0_619)"/>
<path fill-rule="evenodd" clip-rule="evenodd" d="M53.9692 34.1051L29.2792 20.5546C27.8337 19.7565 26.5358 19.8665 25.7689 20.6645L46.8349 40.9984L53.9692 34.1051Z" fill="url(#paint4_linear_0_619)"/>
<path opacity="0.2" fill-rule="evenodd" clip-rule="evenodd" d="M53.8141 47.7438L29.2924 61.2046C27.9229 61.966 26.7008 61.9131 25.9127 61.2209L25.7821 61.3471L25.9127 61.4571C26.7008 62.1452 27.9229 62.2022 29.2924 61.4408L53.9826 47.8904L53.8141 47.7438Z" fill="black"/>
<path opacity="0.12" fill-rule="evenodd" clip-rule="evenodd" d="M62.2247 43.1189L53.7924 47.7443L53.9442 47.8909L62.2037 43.3551C63.3878 42.7036 63.9694 41.8485 63.9694 40.9976C63.8977 41.7793 63.2951 42.5204 62.2247 43.1189Z" fill="black"/>
<path opacity="0.25" fill-rule="evenodd" clip-rule="evenodd" d="M29.2815 20.7897L62.2311 38.876C63.3014 39.4582 63.904 40.2196 63.9968 40.9973C63.9968 40.1463 63.4152 39.2913 62.2311 38.6398L29.2815 20.5535C26.9174 19.2465 25 20.3377 25 22.9476V23.1838C25 20.5698 26.9174 19.499 29.2815 20.7897Z" fill="white"/>
</g>
<defs>
<linearGradient id="paint0_linear_0_619" x1="25.6356" y1="72.9559" x2="235.132" y2="32.2874" gradientUnits="userSpaceOnUse">
<stop stop-color="#24095F"/>
<stop offset="1" stop-color="#210757"/>
</linearGradient>
<linearGradient id="paint1_linear_0_619" x1="44.9762" y1="22.5576" x2="11.5988" y2="31.762" gradientUnits="userSpaceOnUse">
<stop stop-color="#00A0FF"/>
<stop offset="0.00657" stop-color="#00A1FF"/>
<stop offset="0.2601" stop-color="#00BEFF"/>
<stop offset="0.5122" stop-color="#00D2FF"/>
<stop offset="0.7604" stop-color="#00DFFF"/>
<stop offset="1" stop-color="#00E3FF"/>
</linearGradient>
<linearGradient id="paint2_linear_0_619" x1="65.3099" y1="40.9983" x2="24.4211" y2="40.9983" gradientUnits="userSpaceOnUse">
<stop stop-color="#FFE000"/>
<stop offset="0.4087" stop-color="#FFBD00"/>
<stop offset="0.7754" stop-color="#FFA500"/>
<stop offset="1" stop-color="#FF9C00"/>
</linearGradient>
<linearGradient id="paint3_linear_0_619" x1="50.0898" y1="44.7485" x2="24.5134" y2="89.3011" gradientUnits="userSpaceOnUse">
<stop stop-color="#FF3A44"/>
<stop offset="1" stop-color="#C31162"/>
</linearGradient>
<linearGradient id="paint4_linear_0_619" x1="20.4642" y1="8.63559" x2="31.8745" y2="28.5329" gradientUnits="userSpaceOnUse">
<stop stop-color="#32A071"/>
<stop offset="0.0685" stop-color="#2DA771"/>
<stop offset="0.4762" stop-color="#15CF74"/>
<stop offset="0.8009" stop-color="#06E775"/>
<stop offset="1" stop-color="#00F076"/>
</linearGradient>
<clipPath id="clip0_0_619">
<rect width="242" height="82" rx="8" transform="matrix(1 0 0 -1 0 82)" fill="white"/>
</clipPath>
</defs>
</svg>
