<svg width="116" height="48" viewBox="0 0 116 48" fill="none" xmlns="http://www.w3.org/2000/svg">
<g filter="url(#filter0_d_1_365)">
<path d="M19.9393 19.1619C19.6834 18.593 18.8411 18.5827 18.5812 19.1498C18.0013 20.4152 17.0943 22.3017 16.0075 24.2441C15.8742 24.4824 15.8883 24.7753 16.0427 25.0006C16.5543 25.747 17.7377 27.5486 18.7093 29.592C18.986 30.174 19.8898 30.1714 20.1441 29.5792C20.7256 28.2248 21.6041 26.3542 22.5292 25.0213C22.6937 24.7843 22.7124 24.4741 22.5662 24.2254C22.0815 23.4012 20.9578 21.4261 19.9393 19.1619Z" fill="url(#paint0_linear_1_365)"/>
</g>
<g filter="url(#filter1_d_1_365)">
<path d="M30.7626 41.0899C30.2788 41.1373 29.9915 41.6536 30.2063 42.0897L30.7494 43.1926C30.9928 43.6869 31.4959 43.9999 32.0468 43.9999H46.3178C46.8137 43.9999 47.2749 43.7459 47.54 43.3268L48.6721 41.537C43.3134 39.5038 37.7175 27.0713 37.5968 26.8018C37.593 26.7934 37.5927 26.7932 37.5886 26.7849L26.4862 4.35227C26.2305 3.83581 25.4939 3.83618 25.2388 4.35288L22.5138 9.87244C21.9908 10.9317 22.0012 12.1719 22.5398 13.2232C25.1464 18.3112 30.7375 29.3836 32.9761 33.9055C35.7456 39.5016 32.5619 40.7465 31.1469 41.0523L30.7626 41.0899Z" fill="url(#paint1_linear_1_365)"/>
</g>
<g filter="url(#filter2_d_1_365)">
<path d="M14.0479 32.8043C13.7823 32.2503 12.9479 32.2467 12.6728 32.796C11.459 35.2191 8.71418 39.9149 5 41.537L6.03859 43.9999H19.0391C19.653 43.9999 20.2001 43.6123 20.4036 43.0331L20.9293 41.537C19.975 41.1176 17.2081 39.3956 14.0479 32.8043Z" fill="url(#paint2_linear_1_365)"/>
</g>
<path d="M80.7391 31.5048V31.9344L81.0386 40.974C81.3048 41.1732 81.5511 41.2728 81.7774 41.2728C82.0037 41.2728 82.1301 41.0674 82.1567 40.6565C82.1567 40.532 82.1501 40.2394 82.1368 39.7787C82.1368 39.3055 82.1301 38.7514 82.1168 38.1164C82.1168 37.4814 82.1102 36.8028 82.0968 36.0806C82.0835 35.3585 82.0702 34.6799 82.0569 34.0449C82.0436 33.4098 82.0303 32.862 82.017 32.4013C82.0037 31.9281 81.997 31.6293 81.997 31.5048L82.017 31.1063L81.997 30.7702V30.2161C81.9571 29.8799 81.9305 29.5126 81.9171 29.1142C81.9038 28.7033 81.8972 28.2861 81.8972 27.8628C81.9105 27.427 81.9238 26.9974 81.9371 26.5741C81.9504 26.1383 81.9704 25.7274 81.997 25.3414C81.9571 25.2169 81.8772 25.1173 81.7574 25.0426C81.6376 24.9554 81.5045 24.9118 81.3581 24.9118C81.225 24.8994 81.0919 24.9305 80.9588 25.0052C80.8256 25.0799 80.7391 25.1982 80.6992 25.3601L80.7391 30.6457V31.2433V31.5048Z" fill="white"/>
<path d="M72.8723 39.76C72.5129 39.7475 72.2068 39.6479 71.9538 39.4612C71.5811 39.5981 71.4014 39.7911 71.4148 40.0401C71.4281 40.2767 71.5878 40.5195 71.8939 40.7685C72.1735 40.8432 72.5395 40.8495 72.9921 40.7872C73.458 40.725 73.9505 40.6067 74.4696 40.4324C75.0021 40.258 75.5345 40.0401 76.067 39.7787C76.5994 39.5047 77.0786 39.2059 77.5045 38.8822C77.9438 38.546 78.3032 38.1911 78.5827 37.8176C78.8623 37.4316 79.0087 37.0332 79.022 36.6223C78.9954 35.9748 78.8556 35.5328 78.6027 35.2962C78.3498 35.0472 78.0303 34.9102 77.6443 34.8853C77.2583 34.848 76.8257 34.8791 76.3465 34.9787C75.8673 35.0659 75.3947 35.1281 74.9289 35.1655C74.4763 35.2028 74.0437 35.1655 73.631 35.0534C73.2317 34.9289 72.9056 34.6425 72.6527 34.1943C72.5329 33.8083 72.5595 33.3787 72.7325 32.9056C72.9056 32.4324 73.1984 32.0091 73.6111 31.6355C74.0237 31.2495 74.5428 30.9507 75.1685 30.739C75.7941 30.5274 76.4996 30.4962 77.2849 30.6457C77.5112 30.6706 77.6909 30.627 77.824 30.5149C77.9571 30.4029 78.0303 30.2534 78.0436 30.0667C78.057 29.9173 78.037 29.8052 77.9837 29.7305C77.9438 29.6558 77.8773 29.5998 77.7841 29.5624C77.6909 29.525 77.5844 29.5064 77.4646 29.5064C77.3581 29.4939 77.2383 29.4815 77.1052 29.469C76.4397 29.4317 75.7808 29.5188 75.1285 29.7305C74.4896 29.9422 73.9039 30.2472 73.3715 30.6457C72.8523 31.0441 72.4197 31.5297 72.0736 32.1025C71.7409 32.6628 71.5545 33.2667 71.5146 33.9141C71.488 34.5865 71.641 35.0845 71.9738 35.4083C72.3066 35.732 72.7392 35.9374 73.2716 36.0246C73.8174 36.1118 74.4297 36.1118 75.1086 36.0246C75.7874 35.9374 76.4663 35.8192 77.1451 35.6697C77.5179 35.7943 77.7575 35.9623 77.8639 36.174C77.9704 36.3857 77.9771 36.6223 77.8839 36.8837C77.7907 37.1328 77.611 37.4005 77.3448 37.6868C77.0919 37.9608 76.7857 38.2223 76.4264 38.4713C76.0803 38.7203 75.6942 38.9507 75.2683 39.1623C74.8557 39.3615 74.443 39.5172 74.0304 39.6292C73.631 39.7289 73.245 39.7724 72.8723 39.76Z" fill="white"/>
<path fill-rule="evenodd" clip-rule="evenodd" d="M91.0019 40.6191C90.8156 40.3576 90.6958 40.0152 90.6425 39.5919C90.6026 39.1686 90.576 38.7265 90.5627 38.2658V36.8837C90.576 36.423 90.5427 36.0308 90.4628 35.7071C89.8372 36.9896 89.2449 37.9919 88.6858 38.7141C88.1401 39.4238 87.6342 39.9343 87.1684 40.2456C86.7158 40.5444 86.3031 40.6814 85.9304 40.6565C85.5577 40.6191 85.2383 40.4946 84.972 40.2829C84.7191 40.0588 84.5195 39.7911 84.373 39.4798C84.2266 39.1561 84.1467 38.851 84.1334 38.5647C84.0403 38.0915 84.0336 37.525 84.1135 36.8651C84.2066 36.1927 84.3597 35.5017 84.5727 34.7919C84.799 34.0822 85.0785 33.3912 85.4113 32.7188C85.7574 32.034 86.1434 31.4425 86.5694 30.9445C87.0086 30.4464 87.4745 30.0791 87.967 29.8426C88.4595 29.5935 88.972 29.5499 89.5044 29.7118C89.7707 29.6869 89.9903 29.6994 90.1633 29.7492C90.3497 29.7865 90.5028 29.8737 90.6226 30.0106C90.7424 30.1476 90.8289 30.3406 90.8821 30.5896C90.9354 30.8262 90.9753 31.1313 91.0019 31.5048C90.9753 32.7126 91.0086 33.7398 91.1018 34.5865C91.2082 35.4332 91.328 36.1802 91.4612 36.8277C91.5943 37.4752 91.7207 38.0604 91.8405 38.5833C91.9736 39.1063 92.0535 39.6479 92.0801 40.2082C92.0801 40.4075 92.0269 40.5631 91.9204 40.6752C91.8139 40.7748 91.6941 40.837 91.561 40.8619C91.4279 40.8993 91.3014 40.8931 91.1816 40.8432C91.0751 40.7934 91.0152 40.7187 91.0019 40.6191ZM89.8439 31.1873C89.5244 30.7888 89.1783 30.6208 88.8056 30.683C88.4329 30.7453 88.0602 30.9632 87.6875 31.3367C87.3281 31.6978 86.982 32.1772 86.6492 32.7748C86.3164 33.36 86.0303 33.9888 85.7907 34.6612C85.5511 35.3336 85.3714 36.0059 85.2516 36.6783C85.1451 37.3382 85.1251 37.9234 85.1917 38.4339C85.378 38.9942 85.6043 39.3304 85.8705 39.4425C86.1367 39.5545 86.4229 39.5172 86.7291 39.3304C87.0352 39.1312 87.348 38.8199 87.6675 38.3966C87.987 37.9732 88.2931 37.5188 88.586 37.0332C88.8788 36.5351 89.1384 36.0433 89.3647 35.5577C89.6043 35.0596 89.7973 34.6425 89.9437 34.3063L89.8439 31.1873Z" fill="white"/>
<path d="M92.9986 36.0806C93.0252 37.276 93.0585 38.7328 93.0984 40.451C93.1517 40.588 93.2448 40.6938 93.3779 40.7685C93.5244 40.8308 93.6641 40.8557 93.7972 40.8432C93.9437 40.8432 94.0701 40.8121 94.1766 40.7499C94.2964 40.6752 94.363 40.5693 94.3763 40.4324C94.3896 40.0215 94.3829 39.5421 94.3563 38.9942C94.343 38.4464 94.343 37.8674 94.3563 37.2573C94.3829 36.6472 94.4428 36.0371 94.536 35.4269C94.6425 34.8044 94.8355 34.2129 95.115 33.6526C95.3014 33.2667 95.5543 32.8993 95.8738 32.5507C96.2065 32.2021 96.5859 31.9032 97.0119 31.6542C97.4511 31.3927 97.9303 31.1997 98.4494 31.0752C98.9819 30.9383 99.5476 30.8885 100.147 30.9258C100.266 30.876 100.36 30.8013 100.426 30.7017C100.506 30.5896 100.539 30.4776 100.526 30.3655C100.526 30.241 100.479 30.1289 100.386 30.0293C100.306 29.9297 100.18 29.8612 100.007 29.8239C99.4877 29.7367 98.922 29.7429 98.3097 29.8426C97.7107 29.9422 97.1317 30.1601 96.5726 30.4962C96.0135 30.82 95.5077 31.2682 95.0551 31.841C94.6159 32.4137 94.2964 33.1297 94.0967 33.9888L94.0368 29.6931C93.9836 29.5811 93.8971 29.5001 93.7773 29.4503C93.6575 29.4005 93.531 29.3881 93.3979 29.413C93.2781 29.4254 93.165 29.469 93.0585 29.5437C92.952 29.6184 92.8921 29.7118 92.8788 29.8239V30.2908C92.8921 30.5025 92.8987 30.8324 92.8987 31.2807C92.9121 31.7165 92.9254 32.3266 92.9387 33.111C92.952 33.8954 92.972 34.8853 92.9986 36.0806Z" fill="white"/>
<path d="M106.097 16.3366C105.216 14.0733 93.8856 16.6059 80.7908 21.9933C67.696 27.3807 57.7951 33.5828 58.6765 35.8461" stroke="url(#paint3_linear_1_365)" stroke-width="2.62745"/>
<path d="M83.8647 11.7336C84.7798 11.1313 86.086 9.82977 86.7511 7.69145H88.7191V11.6613H91.5296V12.8523H88.7191V20.6597C88.7191 21.6125 88.8298 22.2741 89.0513 22.6447C89.2727 22.9975 89.6048 23.174 90.0477 23.174C90.5246 23.174 91.0015 23.0593 91.4785 22.8299C91.6658 22.7241 91.8617 22.6006 92.0661 22.4594L92.4238 23.2005C92.2024 23.3945 91.9384 23.5886 91.6318 23.7827C90.9164 24.1709 90.0732 24.365 89.1024 24.365C87.9271 24.365 87.0158 24.0385 86.3686 23.3857C85.7213 22.7152 85.3977 21.7537 85.3977 20.5009V12.8523H83.8647V11.7336Z" fill="white"/>
<path fill-rule="evenodd" clip-rule="evenodd" d="M70.8797 24.2062C69.8066 24.2062 68.8357 23.9768 67.967 23.518C67.0984 23.0417 66.3915 22.1242 65.8464 20.7656L65.2588 19.2835H58.4627L56.3676 24.1003H55.0391L62.5761 6.63281H63.7259L69.4489 20.7656C70.0962 22.4065 70.9819 23.2887 72.106 23.4122V24.0738C71.7995 24.162 71.3907 24.2062 70.8797 24.2062ZM58.9992 18.0925H64.7734L61.9629 11.1849L58.9992 18.0925Z" fill="white"/>
<path d="M77.2277 24.365C75.2348 24.365 73.8637 24.0033 73.1142 23.2799C72.8417 23.0152 72.6714 22.6447 72.6033 22.1683C72.5351 21.6743 72.5011 20.995 72.5011 20.1304H73.3953C73.5486 21.0479 73.8978 21.7889 74.4428 22.3535C74.9879 22.9005 75.7458 23.174 76.7167 23.174C78.42 23.174 79.2716 22.5741 79.2716 21.3743C79.2716 20.9156 79.0843 20.5362 78.7096 20.2363C78.3519 19.9363 77.7727 19.6011 76.9722 19.2306L75.6436 18.6483C74.5535 18.1543 73.7359 17.6162 73.1909 17.0339C72.6458 16.4517 72.3733 15.7459 72.3733 14.9166C72.3733 13.8051 72.8162 12.9405 73.7019 12.323C74.6046 11.7054 75.7799 11.3967 77.2277 11.3967C79.2205 11.3967 80.5917 11.7584 81.3411 12.4818C81.6137 12.7464 81.784 13.117 81.8521 13.5933C81.9203 14.0697 81.9543 14.749 81.9543 15.6312H81.0601C80.9068 14.7137 80.5576 13.9815 80.0126 13.4345C79.4675 12.8699 78.7096 12.5876 77.7387 12.5876C77.0063 12.5876 76.4612 12.7553 76.1035 13.0905C75.7458 13.4081 75.567 13.8404 75.567 14.3873C75.567 14.8284 75.7118 15.1989 76.0013 15.4989C76.3079 15.7812 76.7678 16.0635 77.381 16.3458L78.914 17.0074C80.1744 17.5544 81.0771 18.1102 81.6222 18.6748C82.1843 19.2217 82.4653 19.9452 82.4653 20.845C82.4653 21.9742 81.9799 22.8476 81.009 23.4651C80.0552 24.065 78.7947 24.365 77.2277 24.365Z" fill="white"/>
<path d="M102.095 11.926C102.401 12.1554 102.623 12.4112 102.759 12.6935C102.895 12.9582 102.963 13.0993 102.963 13.117L101.66 14.1491C101.541 13.9903 101.388 13.8227 101.2 13.6463C100.826 13.2934 100.391 13.117 99.8974 13.117C98.9095 13.117 98.1515 13.3904 97.6235 13.9374L97.6746 14.3344C97.7087 14.652 97.7257 14.9431 97.7257 15.2078V24.1003H94.4043V15.1019C94.4043 14.2021 94.285 13.5404 94.0466 13.117C93.8251 12.6759 93.3567 12.4553 92.6414 12.4553H92.3859V11.6613H94.9153C95.4944 11.6613 95.9457 11.7407 96.2694 11.8995C96.61 12.0407 96.874 12.2877 97.0614 12.6406C97.9812 11.8113 99.0542 11.3967 100.281 11.3967C101.013 11.3967 101.618 11.5731 102.095 11.926Z" fill="white"/>
<path fill-rule="evenodd" clip-rule="evenodd" d="M106.596 23.518C107.533 24.0826 108.623 24.365 109.866 24.365C111.11 24.365 112.191 24.0826 113.111 23.518C114.048 22.9358 114.763 22.1595 115.257 21.189C115.751 20.201 115.998 19.0982 115.998 17.8808C115.998 16.6634 115.751 15.5695 115.257 14.599C114.763 13.611 114.048 12.8347 113.111 12.27C112.191 11.6878 111.11 11.3967 109.866 11.3967C108.623 11.3967 107.533 11.6878 106.596 12.27C105.676 12.8347 104.969 13.611 104.475 14.599C103.981 15.5695 103.734 16.6634 103.734 17.8808C103.734 19.0982 103.981 20.201 104.475 21.189C104.969 22.1595 105.676 22.9358 106.596 23.518ZM111.859 21.7184C111.399 22.6888 110.735 23.174 109.866 23.174C108.998 23.174 108.333 22.6888 107.873 21.7184C107.413 20.7479 107.184 19.4688 107.184 17.8808C107.184 16.2929 107.413 15.0137 107.873 14.0433C108.333 13.0728 108.998 12.5876 109.866 12.5876C110.735 12.5876 111.399 13.0728 111.859 14.0433C112.319 15.0137 112.549 16.2929 112.549 17.8808C112.549 19.4688 112.319 20.7479 111.859 21.7184Z" fill="white"/>
<path d="M106.097 16.3364C106.979 18.5998 97.0777 24.8019 83.9829 30.1893C70.8881 35.5767 59.558 38.1093 58.6766 35.8459" stroke="white" stroke-width="2.62745"/>
<defs>
<filter id="filter0_d_1_365" x="3.39316" y="6.67028" width="31.7953" height="36.3427" filterUnits="userSpaceOnUse" color-interpolation-filters="sRGB">
<feFlood flood-opacity="0" result="BackgroundImageFix"/>
<feColorMatrix in="SourceAlpha" type="matrix" values="0 0 0 0 0 0 0 0 0 0 0 0 0 0 0 0 0 0 127 0" result="hardAlpha"/>
<feOffset dy="0.463825"/>
<feGaussianBlur stdDeviation="6.26164"/>
<feComposite in2="hardAlpha" operator="out"/>
<feColorMatrix type="matrix" values="0 0 0 0 0 0 0 0 0 1 0 0 0 0 0.64 0 0 0 0.7 0"/>
<feBlend mode="normal" in2="BackgroundImageFix" result="effect1_dropShadow_1_365"/>
<feBlend mode="normal" in="SourceGraphic" in2="effect1_dropShadow_1_365" result="shape"/>
</filter>
<filter id="filter1_d_1_365" x="17.9542" y="0.486397" width="33.0371" height="46.5285" filterUnits="userSpaceOnUse" color-interpolation-filters="sRGB">
<feFlood flood-opacity="0" result="BackgroundImageFix"/>
<feColorMatrix in="SourceAlpha" type="matrix" values="0 0 0 0 0 0 0 0 0 0 0 0 0 0 0 0 0 0 127 0" result="hardAlpha"/>
<feOffset dx="-0.927651" dy="-0.231913"/>
<feGaussianBlur stdDeviation="1.62339"/>
<feComposite in2="hardAlpha" operator="out"/>
<feColorMatrix type="matrix" values="0 0 0 0 0.368627 0 0 0 0 0.266667 0 0 0 0 0.988235 0 0 0 0.4 0"/>
<feBlend mode="normal" in2="BackgroundImageFix" result="effect1_dropShadow_1_365"/>
<feBlend mode="normal" in="SourceGraphic" in2="effect1_dropShadow_1_365" result="shape"/>
</filter>
<filter id="filter2_d_1_365" x="0.825571" y="28.9078" width="22.4229" height="18.1068" filterUnits="userSpaceOnUse" color-interpolation-filters="sRGB">
<feFlood flood-opacity="0" result="BackgroundImageFix"/>
<feColorMatrix in="SourceAlpha" type="matrix" values="0 0 0 0 0 0 0 0 0 0 0 0 0 0 0 0 0 0 127 0" result="hardAlpha"/>
<feOffset dx="-0.927651" dy="-0.231913"/>
<feGaussianBlur stdDeviation="1.62339"/>
<feComposite in2="hardAlpha" operator="out"/>
<feColorMatrix type="matrix" values="0 0 0 0 0.368627 0 0 0 0 0.266667 0 0 0 0 0.988235 0 0 0 0.4 0"/>
<feBlend mode="normal" in2="BackgroundImageFix" result="effect1_dropShadow_1_365"/>
<feBlend mode="normal" in="SourceGraphic" in2="effect1_dropShadow_1_365" result="shape"/>
</filter>
<linearGradient id="paint0_linear_1_365" x1="19.2988" y1="17.5891" x2="19.2988" y2="31.3106" gradientUnits="userSpaceOnUse">
<stop stop-color="#45DEFF"/>
<stop offset="1" stop-color="white"/>
</linearGradient>
<linearGradient id="paint1_linear_1_365" x1="35.1546" y1="3.09127" x2="42.0864" y2="45.8484" gradientUnits="userSpaceOnUse">
<stop stop-color="#00FDFE"/>
<stop offset="1" stop-color="#0266EF"/>
</linearGradient>
<linearGradient id="paint2_linear_1_365" x1="12.9514" y1="31.3107" x2="14.1028" y2="44.8237" gradientUnits="userSpaceOnUse">
<stop stop-color="#00FDFE"/>
<stop offset="1" stop-color="#0266EF"/>
</linearGradient>
<linearGradient id="paint3_linear_1_365" x1="82.4706" y1="26.9857" x2="79.9135" y2="20.5587" gradientUnits="userSpaceOnUse">
<stop stop-color="white"/>
<stop offset="1" stop-color="white" stop-opacity="0"/>
</linearGradient>
</defs>
</svg>
